<mxfile host="Electron" agent="Mozilla/5.0 (Windows NT 10.0; Win64; x64) AppleWebKit/537.36 (KHTML, like Gecko) draw.io/24.7.5 Chrome/126.0.6478.183 Electron/31.3.0 Safari/537.36" version="24.7.5">
  <diagram name="Page-1" id="oMJKX07nI15w1AO_GSw-">
    <mxGraphModel dx="1098" dy="868" grid="1" gridSize="10" guides="1" tooltips="1" connect="1" arrows="1" fold="1" page="1" pageScale="1" pageWidth="850" pageHeight="1100" math="0" shadow="0">
      <root>
        <mxCell id="0" />
        <mxCell id="1" parent="0" />
        <mxCell id="cdK_0l6hOHfmkz_TeMS9-8" value="" style="edgeStyle=orthogonalEdgeStyle;rounded=0;orthogonalLoop=1;jettySize=auto;html=1;" edge="1" parent="1" source="cdK_0l6hOHfmkz_TeMS9-12" target="cdK_0l6hOHfmkz_TeMS9-7">
          <mxGeometry relative="1" as="geometry" />
        </mxCell>
        <mxCell id="cdK_0l6hOHfmkz_TeMS9-5" value="&lt;font color=&quot;#ffffff&quot;&gt;SQS FIFO para evitar duplicação&lt;/font&gt;" style="sketch=0;points=[[0,0,0],[0.25,0,0],[0.5,0,0],[0.75,0,0],[1,0,0],[0,1,0],[0.25,1,0],[0.5,1,0],[0.75,1,0],[1,1,0],[0,0.25,0],[0,0.5,0],[0,0.75,0],[1,0.25,0],[1,0.5,0],[1,0.75,0]];outlineConnect=0;fontColor=#232F3E;fillColor=#E7157B;strokeColor=#ffffff;dashed=0;verticalLabelPosition=bottom;verticalAlign=top;align=center;html=1;fontSize=12;fontStyle=0;aspect=fixed;shape=mxgraph.aws4.resourceIcon;resIcon=mxgraph.aws4.sqs;" vertex="1" parent="1">
          <mxGeometry x="290" y="542.5" width="78" height="78" as="geometry" />
        </mxCell>
        <mxCell id="cdK_0l6hOHfmkz_TeMS9-9" value="" style="edgeStyle=orthogonalEdgeStyle;rounded=0;orthogonalLoop=1;jettySize=auto;html=1;" edge="1" parent="1" source="cdK_0l6hOHfmkz_TeMS9-2" target="cdK_0l6hOHfmkz_TeMS9-5">
          <mxGeometry relative="1" as="geometry" />
        </mxCell>
        <mxCell id="cdK_0l6hOHfmkz_TeMS9-2" value="Autorizador" style="rounded=1;whiteSpace=wrap;html=1;" vertex="1" parent="1">
          <mxGeometry x="90" y="551.5" width="120" height="60" as="geometry" />
        </mxCell>
        <mxCell id="cdK_0l6hOHfmkz_TeMS9-7" value="" style="shape=cylinder3;whiteSpace=wrap;html=1;boundedLbl=1;backgroundOutline=1;size=15;" vertex="1" parent="1">
          <mxGeometry x="578" y="541.5" width="60" height="80" as="geometry" />
        </mxCell>
        <mxCell id="cdK_0l6hOHfmkz_TeMS9-13" value="" style="edgeStyle=orthogonalEdgeStyle;rounded=0;orthogonalLoop=1;jettySize=auto;html=1;" edge="1" parent="1" source="cdK_0l6hOHfmkz_TeMS9-5" target="cdK_0l6hOHfmkz_TeMS9-12">
          <mxGeometry relative="1" as="geometry">
            <mxPoint x="368" y="581.5" as="sourcePoint" />
            <mxPoint x="578" y="581.5" as="targetPoint" />
          </mxGeometry>
        </mxCell>
        <mxCell id="cdK_0l6hOHfmkz_TeMS9-12" value="Transações" style="rounded=1;whiteSpace=wrap;html=1;" vertex="1" parent="1">
          <mxGeometry x="428" y="551.5" width="120" height="60" as="geometry" />
        </mxCell>
        <mxCell id="cdK_0l6hOHfmkz_TeMS9-14" value="&lt;h1 style=&quot;margin-top: 0px;&quot;&gt;&lt;span style=&quot;background-color: initial;&quot;&gt;Transações&lt;/span&gt;&lt;br&gt;&lt;/h1&gt;&lt;div&gt;&lt;span style=&quot;background-color: initial; font-size: 12px; font-weight: normal;&quot;&gt;&lt;br&gt;&lt;/span&gt;&lt;/div&gt;" style="text;html=1;whiteSpace=wrap;overflow=hidden;rounded=0;" vertex="1" parent="1">
          <mxGeometry x="548" y="630" width="180" height="100" as="geometry" />
        </mxCell>
        <mxCell id="cdK_0l6hOHfmkz_TeMS9-17" value="" style="edgeStyle=orthogonalEdgeStyle;rounded=0;orthogonalLoop=1;jettySize=auto;html=1;" edge="1" parent="1" source="cdK_0l6hOHfmkz_TeMS9-18" target="cdK_0l6hOHfmkz_TeMS9-23">
          <mxGeometry relative="1" as="geometry">
            <mxPoint x="290" y="361.5" as="targetPoint" />
          </mxGeometry>
        </mxCell>
        <mxCell id="cdK_0l6hOHfmkz_TeMS9-33" style="edgeStyle=orthogonalEdgeStyle;rounded=0;orthogonalLoop=1;jettySize=auto;html=1;" edge="1" parent="1" source="cdK_0l6hOHfmkz_TeMS9-18" target="cdK_0l6hOHfmkz_TeMS9-30">
          <mxGeometry relative="1" as="geometry" />
        </mxCell>
        <mxCell id="cdK_0l6hOHfmkz_TeMS9-18" value="Autorizador" style="rounded=1;whiteSpace=wrap;html=1;" vertex="1" parent="1">
          <mxGeometry x="100" y="371.5" width="120" height="60" as="geometry" />
        </mxCell>
        <mxCell id="cdK_0l6hOHfmkz_TeMS9-23" value="Redis" style="outlineConnect=0;dashed=0;verticalLabelPosition=bottom;verticalAlign=top;align=center;html=1;shape=mxgraph.aws3.redis;fillColor=#2E73B8;gradientColor=none;" vertex="1" parent="1">
          <mxGeometry x="130" y="260" width="60" height="63" as="geometry" />
        </mxCell>
        <mxCell id="cdK_0l6hOHfmkz_TeMS9-30" value="" style="shape=cylinder3;whiteSpace=wrap;html=1;boundedLbl=1;backgroundOutline=1;size=15;" vertex="1" parent="1">
          <mxGeometry x="340" y="361.5" width="60" height="80" as="geometry" />
        </mxCell>
        <mxCell id="cdK_0l6hOHfmkz_TeMS9-32" value="&lt;h1 style=&quot;margin-top: 0px;&quot;&gt;&lt;span style=&quot;background-color: initial;&quot;&gt;Transações&lt;/span&gt;&lt;br&gt;&lt;/h1&gt;&lt;div&gt;&lt;span style=&quot;background-color: initial; font-size: 12px; font-weight: normal;&quot;&gt;&lt;br&gt;&lt;/span&gt;&lt;/div&gt;" style="text;html=1;whiteSpace=wrap;overflow=hidden;rounded=0;" vertex="1" parent="1">
          <mxGeometry x="310" y="441.5" width="180" height="100" as="geometry" />
        </mxCell>
        <mxCell id="cdK_0l6hOHfmkz_TeMS9-43" style="edgeStyle=orthogonalEdgeStyle;rounded=0;orthogonalLoop=1;jettySize=auto;html=1;" edge="1" parent="1" source="cdK_0l6hOHfmkz_TeMS9-44" target="cdK_0l6hOHfmkz_TeMS9-46">
          <mxGeometry relative="1" as="geometry" />
        </mxCell>
        <mxCell id="cdK_0l6hOHfmkz_TeMS9-44" value="Autorizador" style="rounded=1;whiteSpace=wrap;html=1;" vertex="1" parent="1">
          <mxGeometry x="90" y="70" width="120" height="60" as="geometry" />
        </mxCell>
        <mxCell id="cdK_0l6hOHfmkz_TeMS9-46" value="" style="shape=cylinder3;whiteSpace=wrap;html=1;boundedLbl=1;backgroundOutline=1;size=15;" vertex="1" parent="1">
          <mxGeometry x="330" y="60" width="60" height="80" as="geometry" />
        </mxCell>
        <mxCell id="cdK_0l6hOHfmkz_TeMS9-47" value="&lt;h1 style=&quot;margin-top: 0px;&quot;&gt;&lt;span style=&quot;background-color: initial;&quot;&gt;Transações&lt;/span&gt;&lt;br&gt;&lt;/h1&gt;&lt;div&gt;&lt;span style=&quot;background-color: initial; font-size: 12px; font-weight: normal;&quot;&gt;Lock Pessimista (Pessimist Lock para banco Relacional com suporte)&amp;nbsp;&lt;/span&gt;&lt;/div&gt;" style="text;html=1;whiteSpace=wrap;overflow=hidden;rounded=0;" vertex="1" parent="1">
          <mxGeometry x="300" y="140" width="200" height="100" as="geometry" />
        </mxCell>
      </root>
    </mxGraphModel>
  </diagram>
</mxfile>
